<?xml version="1.0" encoding="UTF-8"?> <svg xmlns="http://www.w3.org/2000/svg" width="64" height="64" viewBox="0 0 64 64" fill="none"><path d="M5.72272 28.9413C6.02165 28.642 6.37665 28.4046 6.76741 28.2426C7.15818 28.0806 7.57704 27.9972 8.00005 27.9972C8.42307 27.9972 8.84193 28.0806 9.23269 28.2426C9.62346 28.4046 9.97846 28.642 10.2774 28.9413L16.0001 34.6667L40.3894 10.2773C40.6883 9.97804 41.0433 9.7406 41.4341 9.57861C41.8248 9.41661 42.2437 9.33322 42.6667 9.33322C43.0897 9.33322 43.5086 9.41661 43.8994 9.57861C44.2901 9.7406 44.6451 9.97804 44.9441 10.2773L48.3894 13.7253C48.6886 14.024 48.926 14.3788 49.088 14.7694C49.2499 15.1599 49.3333 15.5785 49.3333 16.0013C49.3333 16.4241 49.2499 16.8428 49.088 17.2333C48.926 17.6239 48.6886 17.9786 48.3894 18.2773L18.2774 48.3893C17.673 48.9925 16.8539 49.3313 16.0001 49.3313C15.1462 49.3313 14.3271 48.9925 13.7227 48.3893L2.27739 36.9413C1.97817 36.6426 1.74079 36.2879 1.57883 35.8973C1.41686 35.5068 1.3335 35.0881 1.3335 34.6653C1.3335 34.2425 1.41686 33.8239 1.57883 33.4334C1.74079 33.0428 1.97817 32.688 2.27739 32.3893L5.72272 28.9413Z" fill="#BBCFEE"></path><path d="M19.056 28.9413C19.3549 28.642 19.7099 28.4046 20.1007 28.2426C20.4914 28.0806 20.9103 27.9972 21.3333 27.9972C21.7563 27.9972 22.1752 28.0806 22.5659 28.2426C22.9567 28.4046 23.3117 28.642 23.6106 28.9413L29.3333 34.6667L53.7226 10.2773C54.0216 9.97804 54.3766 9.7406 54.7673 9.57861C55.1581 9.41661 55.577 9.33322 56 9.33322C56.423 9.33322 56.8419 9.41661 57.2326 9.57861C57.6234 9.7406 57.9784 9.97804 58.2773 10.2773L61.7226 13.7253C62.0219 14.024 62.2592 14.3788 62.4212 14.7694C62.5832 15.1599 62.6665 15.5785 62.6665 16.0013C62.6665 16.4241 62.5832 16.8428 62.4212 17.2333C62.2592 17.6239 62.0219 17.9786 61.7226 18.2773L31.6106 48.3893C31.0062 48.9925 30.1872 49.3313 29.3333 49.3313C28.4794 49.3313 27.6604 48.9925 27.056 48.3893L15.6106 36.9413C15.3114 36.6426 15.074 36.2879 14.9121 35.8973C14.7501 35.5068 14.6667 35.0881 14.6667 34.6653C14.6667 34.2425 14.7501 33.8239 14.9121 33.4334C15.074 33.0428 15.3114 32.688 15.6106 32.3893L19.056 28.9413Z" fill="#DEE9FA" stroke="#738EB9" stroke-width="2.66667" stroke-linecap="round" stroke-linejoin="round"></path><path d="M10.9681 29.6373L10.2774 28.944C9.97846 28.6447 9.62346 28.4073 9.23269 28.2453C8.84193 28.0833 8.42307 27.9999 8.00005 27.9999C7.57704 27.9999 7.15818 28.0833 6.76741 28.2453C6.37665 28.4073 6.02165 28.6447 5.72272 28.944L2.27739 32.392C1.97817 32.6907 1.74079 33.0455 1.57883 33.436C1.41686 33.8266 1.3335 34.2452 1.3335 34.668C1.3335 35.0908 1.41686 35.5094 1.57883 35.9C1.74079 36.2905 1.97817 36.6453 2.27739 36.944L13.7227 48.392C14.3278 48.9939 15.1466 49.3317 16.0001 49.3317C16.8535 49.3317 17.6723 48.9939 18.2774 48.392L18.8961 47.7707" stroke="#738EB9" stroke-width="2.66667" stroke-linecap="round" stroke-linejoin="round"></path><path d="M45.5626 10.896L44.944 10.2773C44.645 9.97804 44.29 9.7406 43.8993 9.57861C43.5085 9.41661 43.0896 9.33322 42.6666 9.33322C42.2436 9.33322 41.8248 9.41661 41.434 9.57861C41.0432 9.7406 40.6882 9.97804 40.3893 10.2773L26.3573 24.3093" stroke="#738EB9" stroke-width="2.66667" stroke-linecap="round" stroke-linejoin="round"></path></svg> 