<?xml version="1.0" encoding="UTF-8"?> <svg xmlns="http://www.w3.org/2000/svg" width="64" height="64" viewBox="0 0 64 64" fill="none"><g clip-path="url(#clip0_1303_55438)"><path d="M32 49.6853C45.2548 49.6853 56 38.9401 56 25.6853C56 12.4305 45.2548 1.6853 32 1.6853C18.7452 1.6853 8 12.4305 8 25.6853C8 38.9401 18.7452 49.6853 32 49.6853Z" fill="#BBCFEE"></path><path d="M15.0293 42.6667C10.527 38.1658 7.99708 32.0607 7.99608 25.6945C7.99508 19.3282 10.5231 13.2223 15.024 8.72002C19.5249 4.2177 25.63 1.68777 31.9962 1.68677C38.3625 1.68577 44.4683 4.21378 48.9707 8.71469L15.0293 42.6667Z" fill="#DEE9FA"></path><path d="M11.0613 37.424L1.49333 53.816C1.12533 54.4507 1.41867 54.8693 2.14133 54.7467L11.096 53.2293L14.2 61.7627C14.4507 62.4507 14.9627 62.5013 15.3387 61.8693L23.512 48.1413" fill="#BBCFEE"></path><path d="M11.0613 37.424L1.49333 53.816C1.12533 54.4507 1.41867 54.8693 2.14133 54.7467L11.096 53.2293L14.2 61.7627C14.4507 62.4507 14.9627 62.5013 15.3387 61.8693L23.512 48.1413" stroke="#738EB9" stroke-width="2.66667" stroke-linecap="round" stroke-linejoin="round"></path><path d="M52.9387 37.424L62.5067 53.816C62.8747 54.4507 62.5813 54.8693 61.8587 54.7467L52.904 53.2293L49.8 61.7627C49.5493 62.4507 49.0373 62.5013 48.6613 61.8693L40.488 48.1413" fill="#BBCFEE"></path><path d="M52.9387 37.424L62.5067 53.816C62.8747 54.4507 62.5813 54.8693 61.8587 54.7467L52.904 53.2293L49.8 61.7627C49.5493 62.4507 49.0373 62.5013 48.6613 61.8693L40.488 48.1413" stroke="#738EB9" stroke-width="2.66667" stroke-linecap="round" stroke-linejoin="round"></path><path d="M32 49.6853C45.2548 49.6853 56 38.9401 56 25.6853C56 12.4305 45.2548 1.6853 32 1.6853C18.7452 1.6853 8 12.4305 8 25.6853C8 38.9401 18.7452 49.6853 32 49.6853Z" stroke="#738EB9" stroke-width="2.66667" stroke-linecap="round" stroke-linejoin="round"></path><path d="M42.5067 19.0987L29.92 31.6854C29.7343 31.8712 29.5137 32.0186 29.271 32.1192C29.0283 32.2198 28.7681 32.2716 28.5053 32.2716C28.2426 32.2716 27.9824 32.2198 27.7397 32.1192C27.4969 32.0186 27.2764 31.8712 27.0907 31.6854L22.504 27.0987" stroke="#738EB9" stroke-width="2.66667" stroke-linecap="round" stroke-linejoin="round"></path></g><defs><clipPath id="clip0_1303_55438"><rect width="64" height="64" fill="white"></rect></clipPath></defs></svg> 