<?xml version="1.0" encoding="UTF-8"?> <svg xmlns="http://www.w3.org/2000/svg" width="64" height="64" viewBox="0 0 64 64" fill="none"><g clip-path="url(#clip0_802_54216)"><path d="M31.992 62.6799C48.9361 62.6799 62.672 48.944 62.672 31.9999C62.672 15.0559 48.9361 1.31995 31.992 1.31995C15.0479 1.31995 1.31201 15.0559 1.31201 31.9999C1.31201 48.944 15.0479 62.6799 31.992 62.6799Z" fill="#BBCFEE"></path><path d="M32 48.1654C25.1241 48.1662 18.447 45.8581 13.0395 41.6111C7.63201 37.3641 3.8073 31.4243 2.17868 24.744C1.08244 29.2578 1.02541 33.9615 2.0119 38.5005C2.99839 43.0395 5.00263 47.2952 7.87349 50.9468C10.7443 54.5983 14.4068 57.5503 18.5848 59.5802C22.7627 61.61 27.3471 62.6647 31.992 62.6647C36.637 62.6647 41.2213 61.61 45.3992 59.5802C49.5772 57.5503 53.2397 54.5983 56.1105 50.9468C58.9814 47.2952 60.9856 43.0395 61.9721 38.5005C62.9586 33.9615 62.9016 29.2578 61.8053 24.744C60.1782 31.4221 56.3561 37.3605 50.9517 41.6073C45.5472 45.8542 38.8734 48.1636 32 48.1654Z" fill="#DEE9FA"></path><path d="M5.06665 46.6801H25.3333" stroke="#738EB9" stroke-width="2" stroke-linecap="round" stroke-linejoin="round"></path><path d="M6.68799 14.6801H57.3147" stroke="#738EB9" stroke-width="2" stroke-linecap="round" stroke-linejoin="round"></path><path d="M32.0001 30.6801H1.35205" stroke="#738EB9" stroke-width="2" stroke-linecap="round" stroke-linejoin="round"></path><path d="M27.6052 62.3707C21.9598 61.5485 16.6556 59.1677 12.289 55.4962C7.92247 51.8246 4.66664 47.0078 2.8876 41.5873C1.10855 36.1667 0.876818 30.3574 2.21846 24.8124C3.5601 19.2674 6.42191 14.2065 10.4822 10.1988C14.5424 6.19114 19.6401 3.39549 25.2021 2.12619C30.7641 0.856896 36.57 1.16428 41.9669 3.01378C47.3638 4.86329 52.1378 8.18158 55.7521 12.5956C59.3665 17.0096 61.6779 22.3443 62.4266 28" stroke="#738EB9" stroke-width="2" stroke-linecap="round" stroke-linejoin="round"></path><path d="M30.0429 1.41333C15.0429 17.664 14.3602 38.5013 27.5149 58.6213" stroke="#738EB9" stroke-width="2" stroke-linecap="round" stroke-linejoin="round"></path><path d="M33.9385 1.41333C41.1952 8.89296 45.4156 18.801 45.7811 29.216" stroke="#738EB9" stroke-width="2" stroke-linecap="round" stroke-linejoin="round"></path><path d="M61.3521 56.9867V58.68C61.3521 59.7409 60.9306 60.7583 60.1805 61.5084C59.4303 62.2586 58.4129 62.68 57.3521 62.68H37.3521C36.2912 62.68 35.2738 62.2586 34.5236 61.5084C33.7735 60.7583 33.3521 59.7409 33.3521 58.68V45.3467C33.3521 44.2858 33.7735 43.2684 34.5236 42.5183C35.2738 41.7681 36.2912 41.3467 37.3521 41.3467H57.3521C58.4129 41.3467 59.4303 41.7681 60.1805 42.5183C60.9306 43.2684 61.3521 44.2858 61.3521 45.3467V47.0373" fill="#BBCFEE"></path><path d="M61.3521 56.9867V58.68C61.3521 59.7409 60.9306 60.7583 60.1805 61.5084C59.4303 62.2586 58.4129 62.68 57.3521 62.68H37.3521C36.2912 62.68 35.2738 62.2586 34.5236 61.5084C33.7735 60.7583 33.3521 59.7409 33.3521 58.68V45.3467C33.3521 44.2858 33.7735 43.2684 34.5236 42.5183C35.2738 41.7681 36.2912 41.3467 37.3521 41.3467H57.3521C58.4129 41.3467 59.4303 41.7681 60.1805 42.5183C60.9306 43.2684 61.3521 44.2858 61.3521 45.3467V47.0373" stroke="#738EB9" stroke-width="2" stroke-linecap="round" stroke-linejoin="round"></path><path d="M56.8188 41.3467L53.7842 35.2747C53.5519 34.8111 53.1451 34.4585 52.6531 34.2945C52.1611 34.1305 51.6242 34.1685 51.1602 34.4001L37.2642 41.3467H56.8188Z" fill="#DEE9FA" stroke="#738EB9" stroke-width="2" stroke-linecap="round" stroke-linejoin="round"></path><path d="M62.6854 54.6801C62.6854 55.3873 62.4044 56.0656 61.9043 56.5657C61.4042 57.0658 60.726 57.3467 60.0187 57.3467H54.6854C53.2709 57.3467 51.9143 56.7848 50.9141 55.7846C49.914 54.7844 49.3521 53.4279 49.3521 52.0134C49.3521 50.5989 49.914 49.2423 50.9141 48.2422C51.9143 47.242 53.2709 46.6801 54.6854 46.6801H60.0187C60.726 46.6801 61.4042 46.961 61.9043 47.4611C62.4044 47.9612 62.6854 48.6395 62.6854 49.3467V54.6801Z" fill="#DEE9FA" stroke="#738EB9" stroke-width="2" stroke-linecap="round" stroke-linejoin="round"></path><path d="M56.0187 51.3467C56.1506 51.3467 56.2795 51.3858 56.3891 51.459C56.4987 51.5323 56.5842 51.6364 56.6346 51.7582C56.6851 51.88 56.6983 52.0141 56.6726 52.1434C56.6469 52.2727 56.5834 52.3915 56.4901 52.4848C56.3969 52.578 56.2781 52.6415 56.1488 52.6672C56.0195 52.6929 55.8854 52.6797 55.7636 52.6293C55.6418 52.5788 55.5377 52.4934 55.4644 52.3837C55.3912 52.2741 55.3521 52.1452 55.3521 52.0134C55.3517 51.9257 55.3687 51.8389 55.4021 51.7578C55.4355 51.6768 55.4846 51.6031 55.5465 51.5412C55.6085 51.4792 55.6821 51.4301 55.7632 51.3967C55.8442 51.3633 55.9311 51.3463 56.0187 51.3467" stroke="#738EB9" stroke-width="2" stroke-linecap="round" stroke-linejoin="round"></path></g><defs><clipPath id="clip0_802_54216"><rect width="64" height="64" fill="white"></rect></clipPath></defs></svg> 