<svg width="154" height="23" viewBox="0 0 154 23" fill="none" xmlns="http://www.w3.org/2000/svg">
<path d="M0 15.7307H0.963366V12.9077H2.19051C3.84199 12.9077 4.97739 12.2128 4.97739 10.7036C4.97739 9.14006 3.83052 8.60803 2.14463 8.60803H0V15.7307ZM0.963366 12.1694V9.34636H2.02995C3.34884 9.34636 4.01402 9.68295 4.01402 10.7036C4.01402 11.7134 3.38325 12.1694 2.07582 12.1694H0.963366Z" fill="black"/>
<path d="M8.30293 15.861C9.6677 15.861 10.8948 14.8512 10.8948 13.1031C10.8948 11.3333 9.6677 10.3236 8.30293 10.3236C6.93817 10.3236 5.72249 11.3333 5.72249 13.1031C5.72249 14.8512 6.93817 15.861 8.30293 15.861ZM8.30293 15.1118C7.35104 15.1118 6.70879 14.3084 6.70879 13.1031C6.70879 11.8871 7.35104 11.0727 8.30293 11.0727C9.2663 11.0727 9.90855 11.8871 9.90855 13.1031C9.90855 14.3084 9.2663 15.1118 8.30293 15.1118Z" fill="black"/>
<path d="M13.201 15.7307H14.3479L15.0934 12.8969C15.2424 12.4191 15.3457 11.9522 15.4489 11.3333H15.4948C15.6209 11.9522 15.7241 12.4083 15.8618 12.8969L16.6187 15.7307H17.8229L19.3253 10.4539H18.4193L17.605 13.5157C17.4788 13.9935 17.3871 14.4495 17.2724 15.0141H17.2265C17.1118 14.4495 16.9857 13.9935 16.8595 13.5157L16.0108 10.4539H14.9901L14.1529 13.5157C14.0268 13.9935 13.9236 14.4495 13.8089 15.0141H13.763C13.6712 14.4495 13.5566 13.9935 13.4304 13.5157L12.6161 10.4539H11.6413L13.201 15.7307Z" fill="black"/>
<path d="M22.7414 15.861C23.5098 15.861 24.1062 15.6439 24.5879 15.3181L24.2553 14.7427C23.8653 14.9924 23.3951 15.1336 22.8561 15.1336C21.801 15.1336 21.1014 14.4169 21.0211 13.3312H24.7714C24.8058 13.1574 24.8172 12.9946 24.8172 12.7991C24.8172 11.279 24.003 10.3236 22.5809 10.3236C21.3078 10.3236 20.0807 11.3768 20.0807 13.0923C20.0807 14.8404 21.2505 15.861 22.7414 15.861ZM21.0211 12.6363C21.1358 11.6265 21.8239 11.0402 22.6038 11.0402C23.4525 11.0402 23.9686 11.5939 23.9686 12.6363H21.0211Z" fill="black"/>
<path d="M26.1831 15.7307H27.135V12.3431C27.5134 11.4528 28.0754 11.1379 28.5456 11.1379C28.7635 11.1379 28.8897 11.1596 29.0502 11.203L29.2567 10.4321C29.0846 10.3561 28.9126 10.3236 28.6603 10.3236C28.041 10.3236 27.4676 10.747 27.0776 11.4093H27.0432L26.9629 10.4539H26.1831V15.7307Z" fill="black"/>
<path d="M32.3061 15.861C33.0745 15.861 33.6708 15.6439 34.1525 15.3181L33.8199 14.7427C33.43 14.9924 32.9598 15.1336 32.4208 15.1336C31.3656 15.1336 30.6661 14.4169 30.5858 13.3312H34.336C34.3704 13.1574 34.3819 12.9946 34.3819 12.7991C34.3819 11.279 33.5676 10.3236 32.1455 10.3236C30.8725 10.3236 29.6454 11.3768 29.6454 13.0923C29.6454 14.8404 30.8152 15.861 32.3061 15.861ZM30.5858 12.6363C30.7005 11.6265 31.3886 11.0402 32.1685 11.0402C33.0171 11.0402 33.5332 11.5939 33.5332 12.6363H30.5858Z" fill="black"/>
<path d="M37.6515 15.861C38.3052 15.861 38.9016 15.5136 39.3374 15.1118H39.3718L39.4521 15.7307H40.232V8H39.2801V10.0304L39.326 10.9316C38.8328 10.5516 38.4085 10.3236 37.7662 10.3236C36.4932 10.3236 35.3463 11.3876 35.3463 13.1031C35.3463 14.8621 36.2524 15.861 37.6515 15.861ZM37.858 15.101C36.8831 15.101 36.3326 14.3518 36.3326 13.0923C36.3326 11.8871 37.0437 11.0836 37.9268 11.0836C38.3855 11.0836 38.8099 11.2248 39.2801 11.6265V14.3844C38.8213 14.8621 38.3741 15.101 37.858 15.101Z" fill="black"/>
<path d="M46.871 15.861C48.144 15.861 49.2909 14.8078 49.2909 13.0054C49.2909 11.3768 48.511 10.3236 47.0774 10.3236C46.4581 10.3236 45.8388 10.6384 45.3227 11.051L45.3571 10.1064V8H44.4052V15.7307H45.1621L45.2539 15.1878H45.2883C45.7815 15.6113 46.3549 15.861 46.871 15.861ZM46.7104 15.101C46.3434 15.101 45.8388 14.9598 45.3571 14.5581V11.8002C45.8847 11.3225 46.3664 11.0836 46.8366 11.0836C47.8802 11.0836 48.3046 11.8545 48.3046 13.0163C48.3046 14.3192 47.6279 15.101 46.7104 15.101Z" fill="black"/>
<path d="M50.8139 18C51.9264 18 52.5113 17.2074 52.9012 16.165L55 10.4539H54.071L53.0733 13.3637C52.9242 13.8306 52.7636 14.3735 52.6145 14.8512H52.5686C52.3851 14.3626 52.2016 13.8198 52.0182 13.3637L50.8942 10.4539H49.9079L52.1443 15.7416L52.0182 16.1325C51.7888 16.7839 51.3874 17.2508 50.7681 17.2508C50.6304 17.2508 50.4928 17.2291 50.3552 17.1857L50.1488 17.8914C50.3323 17.9566 50.5502 18 50.8139 18Z" fill="black"/>
<path fill-rule="evenodd" clip-rule="evenodd" d="M137.036 15.2213V6.7085L143.088 11.7143C143.254 11.8557 143.421 12.0063 143.59 12.1668C143.758 12.3273 143.936 12.5086 144.123 12.7109V7.03312H145.556V15.5404L139.38 10.4447C139.216 10.3073 139.056 10.1623 138.902 10.0095C138.747 9.8548 138.6 9.69627 138.462 9.52838V15.2213H137.036Z" fill="#AB2E58"/>
<path fill-rule="evenodd" clip-rule="evenodd" d="M130.341 12.0044H132.996L132.02 10.1373C131.965 10.017 131.905 9.8796 131.845 9.72505C131.785 9.57031 131.723 9.39844 131.663 9.20764C131.61 9.38708 131.556 9.55517 131.496 9.70972C131.438 9.86427 131.378 10.0055 131.319 10.1373L130.341 12.0044ZM134.625 15.2213L133.543 13.112H129.771L128.665 15.2213H127.036L131.651 6.7085L136.258 15.2213H134.625Z" fill="#AB2E58"/>
<path fill-rule="evenodd" clip-rule="evenodd" d="M122.49 10.4872H123.081C123.819 10.4872 124.341 10.4013 124.648 10.2277C124.952 10.0538 125.105 9.76182 125.105 9.35135C125.105 8.90464 124.965 8.58957 124.683 8.40834C124.401 8.22671 123.868 8.13708 123.081 8.13708H122.49V10.4872ZM122.49 14.1066H123.024C123.566 14.1066 123.972 14.0875 124.241 14.051C124.51 14.013 124.721 13.9481 124.879 13.8545C125.07 13.7475 125.216 13.6005 125.321 13.4191C125.425 13.2357 125.476 13.0355 125.476 12.8139C125.476 12.5545 125.414 12.3253 125.287 12.1323C125.161 11.9378 124.981 11.7868 124.748 11.68C124.601 11.6149 124.432 11.5691 124.243 11.5386C124.054 11.51 123.803 11.4946 123.492 11.4946H123.024H122.49V14.1066ZM120.976 15.2199V7.03174H123.377C124.064 7.03174 124.57 7.0642 124.897 7.12733C125.223 7.19027 125.503 7.29522 125.732 7.44041C126.028 7.62742 126.256 7.87179 126.418 8.17351C126.581 8.47504 126.663 8.80923 126.663 9.17389C126.663 9.61104 126.545 9.9757 126.312 10.2679C126.076 10.5598 125.736 10.7642 125.29 10.8807C125.845 10.9552 126.283 11.1728 126.603 11.5317C126.921 11.8924 127.081 12.3449 127.081 12.8928C127.081 13.2252 127.014 13.54 126.879 13.8378C126.745 14.1377 126.554 14.3914 126.305 14.5996C126.045 14.8268 125.723 14.9869 125.337 15.0807C124.95 15.1743 124.301 15.2199 123.39 15.2199H120.976Z" fill="#AB2E58"/>
<path fill-rule="evenodd" clip-rule="evenodd" d="M109.294 13.5827L110.479 13.0919C110.592 13.4568 110.798 13.7356 111.097 13.9264C111.397 14.1192 111.781 14.2146 112.245 14.2146C112.686 14.2146 113.038 14.1039 113.298 13.8844C113.558 13.6649 113.688 13.371 113.688 13.0023C113.688 12.5212 113.242 12.0918 112.352 11.7156C112.226 11.6602 112.132 11.6182 112.064 11.5935C111.058 11.1523 110.387 10.7554 110.053 10.3983C109.718 10.0432 109.55 9.60607 109.55 9.09244C109.55 8.42427 109.803 7.88395 110.308 7.4697C110.813 7.05525 111.476 6.84912 112.296 6.84912C112.97 6.84912 113.534 6.96563 113.988 7.19864C114.442 7.43146 114.755 7.76744 114.93 8.2028L113.769 8.73913C113.585 8.48142 113.385 8.29441 113.166 8.17611C112.948 8.05582 112.697 7.99667 112.413 7.99667C112.015 7.99667 111.697 8.09008 111.463 8.27549C111.227 8.4625 111.109 8.71245 111.109 9.02552C111.109 9.51824 111.625 9.97631 112.659 10.4003C112.737 10.4346 112.799 10.4613 112.844 10.4786C113.747 10.8526 114.367 11.2175 114.706 11.5724C115.043 11.9295 115.211 12.3742 115.211 12.9069C115.211 13.682 114.939 14.2986 114.393 14.7551C113.847 15.2114 113.112 15.4402 112.183 15.4402C111.406 15.4402 110.768 15.2799 110.27 14.9593C109.773 14.6384 109.448 14.1803 109.294 13.5827Z" fill="#AB2E58"/>
<path fill-rule="evenodd" clip-rule="evenodd" d="M106.574 15.2199H108.06V7.03174H106.574V15.2199Z" fill="#AB2E58"/>
<path fill-rule="evenodd" clip-rule="evenodd" d="M97.667 15.2199L100.631 10.936L98.01 7.03174H99.5697L100.887 9.03447C100.959 9.13744 101.089 9.35512 101.281 9.68353L101.375 9.84584C101.441 9.72934 101.515 9.60705 101.596 9.47561C101.677 9.34556 101.769 9.20236 101.873 9.04603L103.265 7.03174H104.788L102.116 10.9129L104.995 15.2199H103.352L101.824 12.8985L101.799 12.8603C101.632 12.5795 101.479 12.3182 101.336 12.0718C101.266 12.1979 101.189 12.3295 101.106 12.4652C101.023 12.6006 100.934 12.7402 100.838 12.8814L99.2395 15.2199H97.667Z" fill="#AB2E58"/>
<path fill-rule="evenodd" clip-rule="evenodd" d="M91.6554 12.0044H94.2018L93.2663 10.1373C93.213 10.017 93.1556 9.8796 93.0981 9.72505C93.0406 9.57031 92.9808 9.39844 92.9233 9.20764C92.8722 9.38708 92.8208 9.55517 92.7635 9.70972C92.7082 9.86427 92.6504 10.0055 92.5931 10.1373L91.6554 12.0044ZM95.7632 15.2213L94.7255 13.112H91.1074L90.0463 15.2213H88.4844L92.9101 6.7085L97.3294 15.2213H95.7632Z" fill="#AB2E58"/>
<path fill-rule="evenodd" clip-rule="evenodd" d="M58.1006 22.6788L71.4162 0L75.5219 6.85881L66.6447 22.5682L58.1006 22.6788Z" fill="#AB2E58"/>
<path fill-rule="evenodd" clip-rule="evenodd" d="M71.5234 14.0502L79.7346 13.9395L84.7282 22.5686H76.2949L71.5234 14.0502Z" fill="#AB2E58"/>
<path fill-rule="evenodd" clip-rule="evenodd" d="M151.656 7.03174L148.233 10.4206V7.03174H146.685V15.2201H148.233V11.0372L152.001 15.2201H154L149.775 10.6728L153.552 7.03174H151.656Z" fill="#AB2E58"/>
</svg>
