<svg width="54" height="21" viewBox="0 0 54 21" fill="none" xmlns="http://www.w3.org/2000/svg">
<path d="M0.10652 9.92154V8.6433C0.928242 7.86216 1.65359 7.1571 2.28256 6.52813C2.92168 5.88901 3.41877 5.30569 3.77384 4.77816C4.1289 4.24049 4.30644 3.7434 4.30644 3.28689C4.30644 2.81009 4.17963 2.44995 3.92601 2.20648C3.68253 1.95286 3.35283 1.82605 2.9369 1.82605C2.59198 1.82605 2.27749 1.9275 1.99344 2.13039C1.71953 2.32314 1.46084 2.5514 1.21737 2.81516L0 1.61301C0.476802 1.10577 0.963749 0.725348 1.46084 0.471729C1.95793 0.207967 2.5514 0.0760855 3.24124 0.0760855C3.88036 0.0760855 4.43832 0.202894 4.91512 0.456512C5.39192 0.710131 5.7622 1.07027 6.02597 1.53693C6.29987 1.99344 6.43683 2.53111 6.43683 3.14994C6.43683 3.68761 6.28466 4.24049 5.98031 4.8086C5.68612 5.36656 5.30569 5.92959 4.83903 6.4977C4.37238 7.05566 3.87528 7.60854 3.34776 8.15636C3.59123 8.12592 3.86514 8.10056 4.16948 8.08027C4.47382 8.04984 4.73759 8.03462 4.96077 8.03462H6.90856V9.92154H0.10652Z" fill="#222222"/>
<path d="M11.3416 10.1041C10.5503 10.1041 9.88076 9.97226 9.33295 9.7085C8.78513 9.44474 8.31847 9.12518 7.93297 8.74982L8.9373 7.33464C9.2315 7.5984 9.55106 7.82665 9.89598 8.0194C10.2409 8.20201 10.6163 8.29331 11.022 8.29331C11.5191 8.29331 11.9148 8.1665 12.209 7.91289C12.5032 7.65927 12.6503 7.28391 12.6503 6.78682C12.6503 6.29987 12.5082 5.92959 12.2242 5.67597C11.9401 5.42235 11.5749 5.29555 11.1286 5.29555C10.8445 5.29555 10.6061 5.33105 10.4134 5.40207C10.2308 5.47308 9.99235 5.59989 9.69816 5.78249L8.69383 5.14337L8.96774 0.25869H14.4459V2.14561H10.9003L10.7329 3.95644C11.0677 3.80427 11.4278 3.72819 11.8133 3.72819C12.3713 3.72819 12.8785 3.83471 13.335 4.04774C13.8017 4.26078 14.1771 4.59049 14.4611 5.03686C14.7452 5.47308 14.8872 6.03611 14.8872 6.72595C14.8872 7.43608 14.7198 8.04477 14.385 8.552C14.0604 9.05924 13.6292 9.44474 13.0916 9.7085C12.5539 9.97226 11.9706 10.1041 11.3416 10.1041Z" fill="#222222"/>
<path d="M19.8072 5.46293C19.5536 5.46293 19.2949 5.53902 19.0311 5.69119C18.7775 5.83322 18.5492 6.07669 18.3463 6.42161C18.4478 7.18247 18.6405 7.70999 18.9246 8.00419C19.2086 8.28824 19.518 8.43027 19.8528 8.43027C20.1876 8.43027 20.4717 8.30853 20.705 8.06506C20.9485 7.81144 21.0702 7.41072 21.0702 6.86291C21.0702 6.35567 20.9485 5.99553 20.705 5.78249C20.4717 5.56945 20.1724 5.46293 19.8072 5.46293ZM19.8985 10.1041C19.2796 10.1041 18.6913 9.94183 18.1333 9.6172C17.5753 9.28242 17.1188 8.76504 16.7638 8.06506C16.4188 7.35493 16.2464 6.43683 16.2464 5.31076C16.2464 4.10354 16.429 3.11443 16.7942 2.34343C17.1695 1.57243 17.6514 1.00433 18.2398 0.639118C18.8384 0.263763 19.4775 0.0760855 20.1572 0.0760855C20.7963 0.0760855 21.3492 0.19275 21.8158 0.426079C22.2825 0.649262 22.668 0.918097 22.9723 1.23258L21.8006 2.57169C21.6383 2.38908 21.4151 2.23184 21.1311 2.09996C20.8572 1.95793 20.5782 1.88692 20.2941 1.88692C19.9391 1.88692 19.6144 1.98329 19.3202 2.17604C19.026 2.35865 18.7876 2.67313 18.605 3.1195C18.4326 3.55573 18.3311 4.14919 18.3007 4.8999C18.5543 4.57527 18.8637 4.32673 19.2289 4.15426C19.6043 3.97166 19.9391 3.88036 20.2333 3.88036C21.0651 3.88036 21.7499 4.12383 22.2876 4.61078C22.8354 5.08758 23.1093 5.83829 23.1093 6.86291C23.1093 7.53246 22.9622 8.11071 22.668 8.59765C22.3738 9.07446 21.9832 9.44474 21.4963 9.7085C21.0195 9.97226 20.4869 10.1041 19.8985 10.1041Z" fill="#222222"/>
<path d="M24.3163 6.86291V5.28033H28.0597V6.86291H24.3163Z" fill="#222222"/>
<path d="M29.8862 9.92154V0H33.2796C33.9695 0 34.5883 0.0760854 35.1361 0.228256C35.6839 0.370282 36.1202 0.618828 36.4448 0.973894C36.7694 1.32896 36.9317 1.82605 36.9317 2.46517C36.9317 2.90139 36.8151 3.33254 36.5817 3.75862C36.3586 4.17455 36.0441 4.45861 35.6383 4.61078V4.67164C36.1455 4.80353 36.5665 5.06222 36.9013 5.44772C37.2462 5.82307 37.4187 6.34045 37.4187 6.99986C37.4187 7.67956 37.2462 8.23244 36.9013 8.65852C36.5564 9.0846 36.0948 9.40416 35.5166 9.6172C34.9383 9.82009 34.289 9.92154 33.5688 9.92154H29.8862ZM32.1231 3.97166H33.1731C33.7209 3.97166 34.1166 3.86514 34.3601 3.6521C34.6137 3.43906 34.7405 3.15501 34.7405 2.79994C34.7405 2.41444 34.6137 2.14054 34.3601 1.97822C34.1064 1.81591 33.7159 1.73475 33.1883 1.73475H32.1231V3.97166ZM32.1231 8.18679H33.3862C34.6137 8.18679 35.2274 7.74042 35.2274 6.84769C35.2274 6.41147 35.0753 6.10205 34.7709 5.91945C34.4666 5.7267 34.005 5.63032 33.3862 5.63032H32.1231V8.18679Z" fill="#222222"/>
<path d="M39.0997 9.92154V0H41.3366V9.92154H39.0997Z" fill="#222222"/>
<path d="M45.6093 9.92154V1.88692H42.8854V0H50.5853V1.88692H47.8614V9.92154H45.6093Z" fill="#222222"/>
<path d="M0.456055 20.2977V13.6427H4.29076V14.3529H1.29807V16.4427H3.8241V17.163H1.29807V19.5774H4.39221V20.2977H0.456055Z" fill="#222222"/>
<path d="M5.80581 20.2977V13.6427H6.67826L9.08256 17.8224L9.80283 19.202H9.84341C9.82312 18.8639 9.79945 18.5156 9.7724 18.1571C9.75211 17.7919 9.74197 17.4335 9.74197 17.0818V13.6427H10.5434V20.2977H9.67095L7.25651 16.1079L6.53623 14.7384H6.49565C6.52271 15.0698 6.54638 15.4113 6.56667 15.763C6.59372 16.1147 6.60724 16.4663 6.60724 16.818V20.2977H5.80581Z" fill="#222222"/>
<path d="M14.89 20.4194C14.3354 20.4194 13.8383 20.2841 13.3987 20.0136C12.9659 19.7363 12.621 19.3407 12.364 18.8267C12.1137 18.3127 11.9886 17.6939 11.9886 16.9702C11.9886 16.2533 12.1171 15.6379 12.3741 15.1239C12.6311 14.6099 12.9828 14.2142 13.4292 13.9369C13.8755 13.6596 14.3794 13.521 14.9407 13.521C15.3465 13.521 15.705 13.6055 16.0161 13.7746C16.3272 13.9369 16.5774 14.1263 16.7668 14.3427L16.3103 14.8905C16.1344 14.7012 15.9349 14.549 15.7117 14.434C15.4886 14.319 15.2349 14.2616 14.9509 14.2616C14.5316 14.2616 14.163 14.3732 13.8451 14.5963C13.534 14.8128 13.2905 15.1205 13.1147 15.5195C12.9456 15.9185 12.8611 16.3953 12.8611 16.9499C12.8611 17.5045 12.9456 17.9881 13.1147 18.4006C13.2838 18.8064 13.5205 19.1209 13.8248 19.3441C14.1359 19.5673 14.5011 19.6788 14.9204 19.6788C15.2383 19.6788 15.5224 19.6112 15.7726 19.4759C16.0228 19.3407 16.2528 19.1581 16.4624 18.9281L16.9291 19.4557C16.6653 19.76 16.3678 19.9967 16.0364 20.1658C15.705 20.3349 15.3229 20.4194 14.89 20.4194Z" fill="#222222"/>
<path d="M18.1697 20.2977V13.6427H20.2494C20.7025 13.6427 21.1049 13.7036 21.4566 13.8253C21.8083 13.9403 22.0822 14.1364 22.2783 14.4137C22.4812 14.6843 22.5826 15.0495 22.5826 15.5094C22.5826 16.0234 22.4474 16.4393 22.1769 16.7572C21.9063 17.0683 21.5411 17.2813 21.0812 17.3963L22.7754 20.2977H21.8218L20.2189 17.4876H19.0117V20.2977H18.1697ZM19.0117 16.7977H20.1276C20.6484 16.7977 21.0474 16.6929 21.3247 16.4833C21.602 16.2668 21.7406 15.9422 21.7406 15.5094C21.7406 15.0698 21.602 14.762 21.3247 14.5862C21.0474 14.4104 20.6484 14.3224 20.1276 14.3224H19.0117V16.7977Z" fill="#222222"/>
<path d="M25.0208 20.2977V17.7209L23.0223 13.6427H23.9252L24.7875 15.5195C24.8957 15.763 25.0005 16.0031 25.1019 16.2398C25.2102 16.4765 25.3184 16.72 25.4266 16.9702H25.4672C25.5821 16.72 25.6971 16.4765 25.8121 16.2398C25.9271 16.0031 26.0353 15.763 26.1367 15.5195L26.9889 13.6427H27.8715L25.8729 17.7209V20.2977H25.0208Z" fill="#222222"/>
<path d="M28.7701 20.2977V13.6427H30.6672C31.1677 13.6427 31.6039 13.7036 31.9759 13.8253C32.3478 13.9471 32.6387 14.1534 32.8483 14.4442C33.058 14.7282 33.1628 15.1137 33.1628 15.6007C33.1628 16.2973 32.9362 16.8147 32.4831 17.1528C32.03 17.491 31.4382 17.66 30.7078 17.66H29.6122V20.2977H28.7701ZM29.6122 16.9702H30.6063C31.188 16.9702 31.6174 16.862 31.8947 16.6456C32.1788 16.4224 32.3208 16.0741 32.3208 15.6007C32.3208 15.1205 32.172 14.7891 31.8744 14.6065C31.5836 14.4171 31.1474 14.3224 30.5658 14.3224H29.6122V16.9702Z" fill="#222222"/>
<path d="M35.6482 20.2977V14.3529H33.6395V13.6427H38.509V14.3529H36.5003V20.2977H35.6482Z" fill="#222222"/>
<path d="M39.7074 20.2977V13.6427H40.5494V20.2977H39.7074Z" fill="#222222"/>
<path d="M44.8274 20.4194C44.2728 20.4194 43.7791 20.2774 43.3463 19.9933C42.9202 19.7093 42.5854 19.3069 42.342 18.7861C42.1052 18.2653 41.9869 17.6499 41.9869 16.9398C41.9869 16.2296 42.1052 15.621 42.342 15.1137C42.5854 14.5997 42.9202 14.2075 43.3463 13.9369C43.7791 13.6596 44.2728 13.521 44.8274 13.521C45.3888 13.521 45.8825 13.6596 46.3085 13.9369C46.7346 14.2075 47.0694 14.5997 47.3129 15.1137C47.5563 15.621 47.6781 16.2296 47.6781 16.9398C47.6781 17.6499 47.5563 18.2653 47.3129 18.7861C47.0694 19.3069 46.7346 19.7093 46.3085 19.9933C45.8825 20.2774 45.3888 20.4194 44.8274 20.4194ZM44.8274 19.6788C45.2264 19.6788 45.5714 19.5673 45.8622 19.3441C46.1598 19.1141 46.3897 18.7963 46.552 18.3905C46.7143 17.9779 46.7955 17.4943 46.7955 16.9398C46.7955 16.1147 46.6163 15.462 46.2578 14.9818C45.8994 14.5017 45.4226 14.2616 44.8274 14.2616C44.2323 14.2616 43.7555 14.5017 43.397 14.9818C43.0386 15.462 42.8593 16.1147 42.8593 16.9398C42.8593 17.4943 42.9405 17.9779 43.1028 18.3905C43.2651 18.7963 43.4951 19.1141 43.7927 19.3441C44.0902 19.5673 44.4352 19.6788 44.8274 19.6788Z" fill="#222222"/>
<path d="M49.1091 20.2977V13.6427H49.9816L52.3859 17.8224L53.1061 19.202H53.1467C53.1264 18.8639 53.1028 18.5156 53.0757 18.1571C53.0554 17.7919 53.0453 17.4335 53.0453 17.0818V13.6427H53.8467V20.2977H52.9743L50.5598 16.1079L49.8395 14.7384H49.799C49.826 15.0698 49.8497 15.4113 49.87 15.763C49.897 16.1147 49.9106 16.4663 49.9106 16.818V20.2977H49.1091Z" fill="#222222"/>
</svg>
