<svg width="77" height="21" viewBox="0 0 77 21" fill="none" xmlns="http://www.w3.org/2000/svg">
<path d="M18.3193 9.72644V0.725237H20.3487V9.72644H18.3193Z" fill="#222222"/>
<path d="M25.2191 9.89211C24.63 9.89211 24.041 9.78167 23.452 9.56078C22.8721 9.33989 22.3521 9.01776 21.8919 8.59439L23.0516 7.20003C23.3737 7.47614 23.7327 7.70163 24.1284 7.8765C24.5242 8.05137 24.9062 8.13881 25.2743 8.13881C25.6977 8.13881 26.0106 8.06058 26.2131 7.90411C26.4248 7.74765 26.5306 7.53597 26.5306 7.26906C26.5306 6.98375 26.411 6.77666 26.1717 6.64781C25.9416 6.50976 25.6286 6.35789 25.2329 6.19223L24.0594 5.69523C23.7557 5.56638 23.4658 5.39611 23.1897 5.18442C22.9136 4.96354 22.6881 4.69203 22.5132 4.3699C22.3383 4.04777 22.2509 3.67042 22.2509 3.23784C22.2509 2.74084 22.3843 2.28986 22.6513 1.8849C22.9274 1.47994 23.3047 1.15781 23.7833 0.918514C24.2711 0.679218 24.8279 0.55957 25.4538 0.55957C25.9692 0.55957 26.4846 0.660811 27 0.863292C27.5154 1.06577 27.9664 1.36029 28.3529 1.74685L27.3175 3.03076C27.023 2.80067 26.7285 2.6258 26.434 2.50615C26.1395 2.3773 25.8127 2.31287 25.4538 2.31287C25.104 2.31287 24.8233 2.3865 24.6116 2.53376C24.4092 2.67182 24.3079 2.8697 24.3079 3.1274C24.3079 3.40351 24.4368 3.61059 24.6945 3.74865C24.9614 3.8867 25.2881 4.03396 25.6747 4.19043L26.8343 4.65981C27.3773 4.8807 27.8099 5.18442 28.132 5.57098C28.4542 5.95753 28.6152 6.46834 28.6152 7.10339C28.6152 7.60039 28.4818 8.06058 28.2149 8.48395C27.948 8.90732 27.5614 9.24785 27.0552 9.50556C26.549 9.76326 25.937 9.89211 25.2191 9.89211Z" fill="#222222"/>
<path d="M33.8015 9.89211C32.9916 9.89211 32.2783 9.70343 31.6616 9.32608C31.0542 8.94873 30.5756 8.41032 30.2259 7.71084C29.8853 7.00215 29.715 6.16002 29.715 5.18442C29.715 4.19963 29.8853 3.3667 30.2259 2.68562C30.5756 1.99535 31.0542 1.47074 31.6616 1.11179C32.2783 0.743644 32.9916 0.55957 33.8015 0.55957C34.6114 0.55957 35.3201 0.743644 35.9275 1.11179C36.5442 1.47074 37.0228 1.99535 37.3633 2.68562C37.7131 3.3759 37.8879 4.20883 37.8879 5.18442C37.8879 6.16002 37.7131 7.00215 37.3633 7.71084C37.0228 8.41032 36.5442 8.94873 35.9275 9.32608C35.3201 9.70343 34.6114 9.89211 33.8015 9.89211ZM33.8015 8.13881C34.4181 8.13881 34.9059 7.8719 35.2649 7.33809C35.6238 6.80427 35.8033 6.08639 35.8033 5.18442C35.8033 4.28246 35.6238 3.57838 35.2649 3.07218C34.9059 2.56597 34.4181 2.31287 33.8015 2.31287C33.1848 2.31287 32.697 2.56597 32.3381 3.07218C31.9792 3.57838 31.7997 4.28246 31.7997 5.18442C31.7997 6.08639 31.9792 6.80427 32.3381 7.33809C32.697 7.8719 33.1848 8.13881 33.8015 8.13881Z" fill="#222222"/>
<path d="M41.792 9.72644V8.56678C42.5375 7.8581 43.1955 7.21844 43.7662 6.64781C44.346 6.06798 44.797 5.53877 45.1191 5.06017C45.4412 4.57238 45.6023 4.1214 45.6023 3.70723C45.6023 3.27466 45.4873 2.94793 45.2572 2.72704C45.0363 2.49695 44.7372 2.3819 44.3598 2.3819C44.0469 2.3819 43.7616 2.47394 43.5039 2.65801C43.2554 2.83288 43.0207 3.03996 42.7998 3.27926L41.6953 2.18862C42.1279 1.72844 42.5697 1.3833 43.0207 1.15321C43.4716 0.913913 44.0101 0.794265 44.6359 0.794265C45.2157 0.794265 45.722 0.909311 46.1545 1.1394C46.5871 1.3695 46.923 1.69623 47.1623 2.1196C47.4108 2.53376 47.5351 3.02156 47.5351 3.58298C47.5351 4.07078 47.397 4.57238 47.1209 5.08779C46.854 5.59399 46.5089 6.10479 46.0855 6.6202C45.6621 7.1264 45.2111 7.628 44.7326 8.125C44.9534 8.09739 45.2019 8.07438 45.4781 8.05598C45.7542 8.02836 45.9935 8.01456 46.1959 8.01456H47.963V9.72644H41.792Z" fill="#222222"/>
<path d="M50.77 9.72644C50.8252 8.75085 50.9311 7.8765 51.0875 7.10339C51.244 6.33028 51.4833 5.58939 51.8054 4.8807C52.1275 4.17202 52.5647 3.43572 53.1169 2.67182H49.1824V0.95993H55.2844V2.20243C54.7782 2.81908 54.3686 3.39891 54.0557 3.94193C53.752 4.48494 53.5127 5.04177 53.3378 5.6124C53.1722 6.17382 53.0525 6.78587 52.9789 7.44853C52.9053 8.1112 52.85 8.8705 52.8132 9.72644H50.77Z" fill="#222222"/>
<path d="M59.5133 9.89211C58.5745 9.89211 57.8152 9.50095 57.2354 8.71864C56.6648 7.93633 56.3795 6.79967 56.3795 5.30867C56.3795 3.81768 56.6648 2.69483 57.2354 1.94012C57.8152 1.17622 58.5745 0.794265 59.5133 0.794265C60.4521 0.794265 61.2068 1.17622 61.7774 1.94012C62.3573 2.69483 62.6472 3.81768 62.6472 5.30867C62.6472 6.79967 62.3573 7.93633 61.7774 8.71864C61.2068 9.50095 60.4521 9.89211 59.5133 9.89211ZM59.5133 8.31828C59.7434 8.31828 59.9505 8.23545 60.1346 8.06978C60.3186 7.89491 60.4613 7.59119 60.5625 7.15862C60.673 6.72604 60.7282 6.1094 60.7282 5.30867C60.7282 4.50795 60.673 3.89591 60.5625 3.47254C60.4613 3.04917 60.3186 2.75925 60.1346 2.60279C59.9505 2.44633 59.7434 2.36809 59.5133 2.36809C59.2924 2.36809 59.09 2.44633 58.9059 2.60279C58.7218 2.75925 58.5745 3.04917 58.4641 3.47254C58.3537 3.89591 58.2984 4.50795 58.2984 5.30867C58.2984 6.1094 58.3537 6.72604 58.4641 7.15862C58.5745 7.59119 58.7218 7.89491 58.9059 8.06978C59.09 8.23545 59.2924 8.31828 59.5133 8.31828Z" fill="#222222"/>
<path d="M66.8071 9.89211C65.8683 9.89211 65.109 9.50095 64.5291 8.71864C63.9585 7.93633 63.6732 6.79967 63.6732 5.30867C63.6732 3.81768 63.9585 2.69483 64.5291 1.94012C65.109 1.17622 65.8683 0.794265 66.8071 0.794265C67.7458 0.794265 68.5005 1.17622 69.0712 1.94012C69.651 2.69483 69.9409 3.81768 69.9409 5.30867C69.9409 6.79967 69.651 7.93633 69.0712 8.71864C68.5005 9.50095 67.7458 9.89211 66.8071 9.89211ZM66.8071 8.31828C67.0372 8.31828 67.2442 8.23545 67.4283 8.06978C67.6124 7.89491 67.755 7.59119 67.8563 7.15862C67.9667 6.72604 68.0219 6.1094 68.0219 5.30867C68.0219 4.50795 67.9667 3.89591 67.8563 3.47254C67.755 3.04917 67.6124 2.75925 67.4283 2.60279C67.2442 2.44633 67.0372 2.36809 66.8071 2.36809C66.5862 2.36809 66.3837 2.44633 66.1996 2.60279C66.0155 2.75925 65.8683 3.04917 65.7578 3.47254C65.6474 3.89591 65.5922 4.50795 65.5922 5.30867C65.5922 6.1094 65.6474 6.72604 65.7578 7.15862C65.8683 7.59119 66.0155 7.89491 66.1996 8.06978C66.3837 8.23545 66.5862 8.31828 66.8071 8.31828Z" fill="#222222"/>
<path d="M71.4225 9.72644V8.08359H73.3277V3.01696H71.6848V1.76065C72.1634 1.66861 72.5684 1.55817 72.8997 1.42932C73.2311 1.30047 73.5532 1.144 73.8661 0.95993H75.3571V8.08359H77V9.72644H71.4225Z" fill="#222222"/>
<path d="M10.3541 0C12.0005 0 13.5651 0.386555 14.956 1.07568L14.9583 2.63341C14.5499 2.38721 14.1219 2.17092 13.6767 1.98915C14.2093 2.76456 14.6948 3.71024 15.0584 4.82503L14.956 4.53282L14.9583 16.1111C14.6534 16.9923 14.2864 17.762 13.8562 18.4223L13.6525 18.7215C14.1081 18.5374 14.5441 18.3199 14.9571 18.0714V19.6292C13.5708 20.3194 12.0085 20.7094 10.3541 20.7094C6.57143 20.7094 3.22474 18.6478 1.43117 15.5933L1.35754 15.4472C0.485494 13.9436 0 12.1972 0 10.3541C0 8.51111 0.509654 6.76471 1.35754 5.26221C1.35754 5.21389 1.40586 5.16442 1.43117 5.1161C3.22589 2.06163 6.54612 0 10.3541 0ZM9.65122 15.8833H7.08109C7.7357 17.6527 8.68023 18.8169 9.65122 19.2046V15.8833ZM13.6031 15.8833H11.0329V19.2046C12.0028 18.8169 12.9484 17.6527 13.6031 15.8833ZM5.62575 15.8833H3.2489C4.24405 17.1442 5.52912 18.114 7.00746 18.7203C6.47479 17.9437 5.9893 16.9981 5.62575 15.8833ZM4.82503 11.0329H1.3817C1.47949 12.2938 1.81888 13.4581 2.37685 14.5004H5.26221C5.01946 13.4339 4.8745 12.2697 4.82503 11.0329ZM9.65122 11.0329H6.20789C6.25621 12.318 6.40117 13.4823 6.66807 14.5004H9.65237V11.0329H9.65122ZM14.4763 11.0329H11.0329V14.5004H14.0161C14.2577 13.4823 14.4279 12.318 14.4763 11.0329ZM5.26106 6.20789H2.378C1.82003 7.25021 1.48064 8.41447 1.38285 9.67538H4.82618C4.87565 8.43863 5.02061 7.27436 5.26336 6.20789H5.26106ZM9.65122 6.20789H6.66807C6.42648 7.22605 6.25621 8.39031 6.20789 9.67538H9.65122V6.20789ZM14.0161 6.20789H11.0329V9.67538H14.4763C14.4279 8.39031 14.283 7.22605 14.0161 6.20789ZM7.03277 1.988C5.52912 2.59429 4.24405 3.56413 3.27306 4.82503H5.64991C6.01346 3.70909 6.47479 2.76456 7.03162 1.988H7.03277ZM9.65122 1.50365C8.68138 1.89136 7.7357 3.05562 7.08109 4.82503H9.65122V1.50365ZM11.0329 1.50365V4.82503H13.6031C12.9484 3.05562 12.0039 1.89136 11.0329 1.50365Z" fill="#315795"/>
<path d="M20.3676 19.2492C19.8645 19.2492 19.4135 19.1265 19.0147 18.8811C18.622 18.6295 18.309 18.2706 18.0759 17.8043C17.8489 17.3379 17.7354 16.7765 17.7354 16.12C17.7354 15.4696 17.8519 14.9112 18.0851 14.4449C18.3183 13.9786 18.6373 13.6196 19.0423 13.3681C19.4472 13.1165 19.9044 12.9907 20.4136 12.9907C20.7818 12.9907 21.107 13.0674 21.3892 13.2208C21.6715 13.3681 21.8985 13.5399 22.0703 13.7362L21.6561 14.2332C21.4966 14.0614 21.3156 13.9234 21.1131 13.8191C20.9106 13.7147 20.6805 13.6626 20.4228 13.6626C20.0424 13.6626 19.708 13.7638 19.4196 13.9663C19.1374 14.1627 18.9165 14.4418 18.757 14.8038C18.6036 15.1659 18.5269 15.5984 18.5269 16.1016C18.5269 16.6047 18.6036 17.0434 18.757 17.4177C18.9104 17.7858 19.1251 18.0712 19.4012 18.2736C19.6835 18.4761 20.0148 18.5774 20.3952 18.5774C20.6836 18.5774 20.9413 18.516 21.1683 18.3933C21.3954 18.2706 21.604 18.1049 21.7942 17.8963L22.2175 18.3749C21.9783 18.651 21.7083 18.8657 21.4076 19.0191C21.107 19.1725 20.7603 19.2492 20.3676 19.2492Z" fill="#222222"/>
<path d="M23.3431 19.1388V13.1012H26.8221V13.7454H24.107V15.6414H26.3987V16.2948H24.107V18.4853H26.9141V19.1388H23.3431Z" fill="#222222"/>
<path d="M28.1966 19.1388V13.1012H30.0833C30.4944 13.1012 30.8595 13.1564 31.1786 13.2668C31.4976 13.3711 31.7461 13.5491 31.9241 13.8006C32.1081 14.0461 32.2002 14.3774 32.2002 14.7946C32.2002 15.261 32.0775 15.6383 31.832 15.9267C31.5866 16.2089 31.2553 16.4022 30.838 16.5065L32.375 19.1388H31.5099L30.0557 16.5894H28.9605V19.1388H28.1966ZM28.9605 15.9635H29.9729C30.4453 15.9635 30.8073 15.8684 31.0589 15.6782C31.3105 15.4819 31.4363 15.1873 31.4363 14.7946C31.4363 14.3958 31.3105 14.1166 31.0589 13.9571C30.8073 13.7976 30.4453 13.7178 29.9729 13.7178H28.9605V15.9635Z" fill="#222222"/>
<path d="M34.5624 19.1388V13.7454H32.7401V13.1012H37.1579V13.7454H35.3355V19.1388H34.5624Z" fill="#222222"/>
<path d="M38.2451 19.1388V13.1012H39.009V19.1388H38.2451Z" fill="#222222"/>
<path d="M40.6629 19.1388V13.1012H44.1419V13.7454H41.4268V15.7886H43.7277V16.4329H41.4268V19.1388H40.6629Z" fill="#222222"/>
<path d="M45.2108 19.1388V13.1012H45.9747V19.1388H45.2108Z" fill="#222222"/>
<path d="M47.6286 19.1388V13.1012H51.1076V13.7454H48.3925V15.6414H50.6842V16.2948H48.3925V18.4853H51.1996V19.1388H47.6286Z" fill="#222222"/>
<path d="M52.4821 19.1388V13.1012H53.9915C54.9241 13.1012 55.6328 13.3619 56.1175 13.8835C56.6023 14.3989 56.8446 15.1352 56.8446 16.0924C56.8446 17.0557 56.6023 17.8043 56.1175 18.3381C55.639 18.8719 54.9425 19.1388 54.0283 19.1388H52.4821ZM53.246 18.5129H53.9363C54.6419 18.5129 55.1696 18.3013 55.5193 17.8779C55.8752 17.4484 56.0531 16.8532 56.0531 16.0924C56.0531 15.3315 55.8752 14.7486 55.5193 14.3437C55.1696 13.9326 54.6419 13.727 53.9363 13.727H53.246V18.5129Z" fill="#222222"/>
</svg>
