<svg width="69" height="21" viewBox="0 0 69 21" fill="none" xmlns="http://www.w3.org/2000/svg">
<path d="M22.7549 10.177V0.77621H25.716C26.4155 0.77621 27.0384 0.867247 27.5846 1.04932C28.1309 1.2314 28.5621 1.53325 28.8783 1.9549C29.1946 2.37655 29.3527 2.95152 29.3527 3.67981C29.3527 4.36978 29.1946 4.93996 28.8783 5.39035C28.5621 5.84075 28.1357 6.17614 27.599 6.39655C27.0624 6.61696 26.4539 6.72716 25.7735 6.72716H24.4223V10.177H22.7549ZM24.4223 5.39035H25.6441C27.024 5.39035 27.714 4.82017 27.714 3.67981C27.714 3.08568 27.5319 2.67841 27.1678 2.458C26.8132 2.22801 26.2862 2.11302 25.5866 2.11302H24.4223V5.39035Z" fill="#222222"/>
<path d="M34.8728 10.3495C34.087 10.3495 33.3731 10.1626 32.7311 9.78888C32.089 9.41515 31.5763 8.86893 31.193 8.15021C30.8193 7.42191 30.6324 6.54029 30.6324 5.50535C30.6324 4.47998 30.8241 3.60315 31.2074 2.87485C31.6003 2.13697 32.1226 1.57638 32.7742 1.19306C33.4258 0.800168 34.1445 0.603719 34.9303 0.603719C35.5245 0.603719 36.0515 0.723505 36.5115 0.963076C36.9715 1.20265 37.35 1.48055 37.6471 1.79678L36.7559 2.87485C36.5163 2.6257 36.248 2.42925 35.9509 2.28551C35.6634 2.13218 35.3376 2.05552 34.9735 2.05552C34.4656 2.05552 34.0104 2.19447 33.6079 2.47237C33.215 2.74069 32.9036 3.1288 32.6736 3.63669C32.4532 4.14458 32.343 4.75309 32.343 5.46222C32.343 6.5355 32.5777 7.37879 33.0473 7.99209C33.5169 8.59581 34.1445 8.89767 34.9303 8.89767C35.352 8.89767 35.7257 8.81143 36.0515 8.63894C36.3773 8.45686 36.6744 8.22208 36.9427 7.9346L37.8339 8.98392C37.4506 9.42473 37.0098 9.76492 36.5115 10.0045C36.0228 10.2345 35.4766 10.3495 34.8728 10.3495Z" fill="#222222"/>
<path d="M39.2595 10.177V3.11922H40.9125V10.177H39.2595ZM40.0932 1.88303C39.7961 1.88303 39.5565 1.79678 39.3745 1.62429C39.1924 1.4518 39.1013 1.22181 39.1013 0.934328C39.1013 0.656425 39.1924 0.431227 39.3745 0.258736C39.5565 0.0862454 39.7961 0 40.0932 0C40.3902 0 40.6298 0.0862454 40.8119 0.258736C40.994 0.431227 41.085 0.656425 41.085 0.934328C41.085 1.22181 40.994 1.4518 40.8119 1.62429C40.6298 1.79678 40.3902 1.88303 40.0932 1.88303Z" fill="#222222"/>
<path d="M46.0429 10.177V0.77621H48.5584C49.9958 0.77621 51.117 1.16432 51.922 1.94053C52.7269 2.71674 53.1294 3.88105 53.1294 5.43347C53.1294 6.99548 52.7317 8.17896 51.9363 8.98392C51.141 9.7793 50.0437 10.177 48.6446 10.177H46.0429ZM47.7103 8.8258H48.4434C49.3921 8.8258 50.1252 8.55269 50.6427 8.00647C51.1601 7.45066 51.4189 6.593 51.4189 5.43347C51.4189 4.28353 51.1601 3.44503 50.6427 2.91798C50.1252 2.39092 49.3921 2.12739 48.4434 2.12739H47.7103V8.8258Z" fill="#222222"/>
<path d="M57.7723 10.3495C57.1398 10.3495 56.5265 10.2297 55.9324 9.99012C55.3478 9.75055 54.8304 9.41036 54.38 8.96954L55.3574 7.83398C55.6928 8.15021 56.0761 8.40895 56.5074 8.61019C56.9386 8.80185 57.3698 8.89767 57.801 8.89767C58.3377 8.89767 58.7449 8.78747 59.0228 8.56707C59.3008 8.34666 59.4397 8.05438 59.4397 7.69024C59.4397 7.29734 59.3008 7.01464 59.0228 6.84215C58.7545 6.66966 58.4095 6.49238 57.9879 6.31031L56.6942 5.74971C56.3876 5.61555 56.0857 5.44306 55.7886 5.23223C55.5012 5.02141 55.2616 4.75309 55.0699 4.42728C54.8878 4.10146 54.7968 3.70856 54.7968 3.24858C54.7968 2.75028 54.931 2.30467 55.1993 1.91178C55.4772 1.5093 55.8509 1.19306 56.3205 0.963076C56.7996 0.723505 57.3458 0.603719 57.9592 0.603719C58.5054 0.603719 59.0324 0.713922 59.5403 0.934328C60.0482 1.14515 60.4842 1.43264 60.8484 1.79678L60.0003 2.86048C59.7032 2.61133 59.387 2.41488 59.0516 2.27113C58.7258 2.12739 58.3616 2.05552 57.9592 2.05552C57.5183 2.05552 57.159 2.15614 56.8811 2.35738C56.6128 2.54904 56.4786 2.81736 56.4786 3.16234C56.4786 3.40191 56.5457 3.60315 56.6798 3.76606C56.8236 3.91938 57.0104 4.05354 57.2404 4.16854C57.4704 4.27395 57.7148 4.37936 57.9735 4.48477L59.2528 5.01662C59.8086 5.25619 60.2638 5.57243 60.6184 5.96532C60.973 6.34864 61.1502 6.88048 61.1502 7.56087C61.1502 8.06876 61.0161 8.53353 60.7478 8.95517C60.4794 9.37682 60.0913 9.71701 59.5834 9.97574C59.0851 10.2249 58.4814 10.3495 57.7723 10.3495Z" fill="#222222"/>
<path d="M65.3805 10.3495C64.7481 10.3495 64.1348 10.2297 63.5406 9.99012C62.9561 9.75055 62.4386 9.41036 61.9882 8.96954L62.9657 7.83398C63.3011 8.15021 63.6844 8.40895 64.1156 8.61019C64.5468 8.80185 64.9781 8.89767 65.4093 8.89767C65.9459 8.89767 66.3532 8.78747 66.6311 8.56707C66.909 8.34666 67.048 8.05438 67.048 7.69024C67.048 7.29734 66.909 7.01464 66.6311 6.84215C66.3628 6.66966 66.0178 6.49238 65.5962 6.31031L64.3025 5.74971C63.9958 5.61555 63.694 5.44306 63.3969 5.23223C63.1094 5.02141 62.8698 4.75309 62.6782 4.42728C62.4961 4.10146 62.4051 3.70856 62.4051 3.24858C62.4051 2.75028 62.5392 2.30467 62.8075 1.91178C63.0854 1.5093 63.4592 1.19306 63.9287 0.963076C64.4079 0.723505 64.9541 0.603719 65.5674 0.603719C66.1136 0.603719 66.6407 0.713922 67.1486 0.934328C67.6565 1.14515 68.0925 1.43264 68.4566 1.79678L67.6086 2.86048C67.3115 2.61133 66.9953 2.41488 66.6599 2.27113C66.334 2.12739 65.9699 2.05552 65.5674 2.05552C65.1266 2.05552 64.7672 2.15614 64.4893 2.35738C64.221 2.54904 64.0869 2.81736 64.0869 3.16234C64.0869 3.40191 64.1539 3.60315 64.2881 3.76606C64.4318 3.91938 64.6187 4.05354 64.8487 4.16854C65.0787 4.27395 65.323 4.37936 65.5818 4.48477L66.8611 5.01662C67.4169 5.25619 67.8721 5.57243 68.2267 5.96532C68.5812 6.34864 68.7585 6.88048 68.7585 7.56087C68.7585 8.06876 68.6243 8.53353 68.356 8.95517C68.0877 9.37682 67.6996 9.71701 67.1917 9.97574C66.6934 10.2249 66.0897 10.3495 65.3805 10.3495Z" fill="#222222"/>
<path d="M9.58285 1.24805C11.509 1.24805 13.301 1.81583 14.8031 2.79328L13.0399 4.53017C12.0145 3.96478 10.8358 3.64376 9.58285 3.64376C5.61315 3.64376 2.39571 6.8612 2.39571 10.8309C2.39571 14.8006 5.61315 18.018 9.58285 18.018C13.0566 18.018 15.953 15.5552 16.6238 12.2803L19.0962 9.67017C19.1417 10.0511 19.1657 10.438 19.1657 10.8309C19.1657 16.123 14.875 20.4137 9.58285 20.4137C4.29072 20.4137 0 16.123 0 10.8309C0 5.53877 4.29072 1.24805 9.58285 1.24805ZM15.7087 5.22133C16.2154 4.71464 17.0431 4.71464 17.5953 5.22133C18.102 5.72683 18.102 6.51023 17.5953 7.01572L10.5555 15.2546C10.2788 15.4846 9.95658 15.6223 9.63436 15.6223C9.26661 15.6223 8.94439 15.4846 8.7144 15.2546L5.17114 11.7113C4.66445 11.2046 4.66445 10.4224 5.17114 9.91573C5.67664 9.41024 6.46004 9.41024 6.96553 9.91573L9.58884 12.539L15.7087 5.22133Z" fill="#006B73"/>
<path d="M24.8003 20.0935C24.2764 20.0935 23.8068 19.9657 23.3916 19.7102C22.9827 19.4482 22.6569 19.0745 22.4141 18.589C22.1778 18.1034 22.0596 17.5189 22.0596 16.8353C22.0596 16.1581 22.181 15.5768 22.4237 15.0912C22.6665 14.6057 22.9987 14.232 23.4203 13.97C23.842 13.7081 24.3179 13.5771 24.8482 13.5771C25.2315 13.5771 25.5701 13.657 25.864 13.8167C26.1578 13.97 26.3942 14.1489 26.5731 14.3534L26.1419 14.8708C25.9758 14.692 25.7873 14.5482 25.5765 14.4396C25.3657 14.331 25.1261 14.2767 24.8578 14.2767C24.4617 14.2767 24.1135 14.3821 23.8132 14.5929C23.5194 14.7974 23.2894 15.088 23.1233 15.465C22.9636 15.8419 22.8837 16.2923 22.8837 16.8162C22.8837 17.34 22.9636 17.7968 23.1233 18.1865C23.283 18.5698 23.5066 18.8669 23.7941 19.0777C24.0879 19.2885 24.4329 19.3939 24.829 19.3939C25.1293 19.3939 25.3976 19.3301 25.634 19.2023C25.8703 19.0745 26.0876 18.902 26.2856 18.6848L26.7264 19.1831C26.4773 19.4706 26.1962 19.6942 25.8831 19.8539C25.5701 20.0136 25.2091 20.0935 24.8003 20.0935Z" fill="#222222"/>
<path d="M29.9366 20.0935C29.4127 20.0935 28.9464 19.9593 28.5375 19.691C28.135 19.4227 27.8188 19.0426 27.5888 18.5506C27.3652 18.0587 27.2534 17.4774 27.2534 16.8066C27.2534 16.1358 27.3652 15.5608 27.5888 15.0817C27.8188 14.5961 28.135 14.2256 28.5375 13.97C28.9464 13.7081 29.4127 13.5771 29.9366 13.5771C30.4668 13.5771 30.9332 13.7081 31.3357 13.97C31.7382 14.2256 32.0544 14.5961 32.2844 15.0817C32.5144 15.5608 32.6294 16.1358 32.6294 16.8066C32.6294 17.4774 32.5144 18.0587 32.2844 18.5506C32.0544 19.0426 31.7382 19.4227 31.3357 19.691C30.9332 19.9593 30.4668 20.0935 29.9366 20.0935ZM29.9366 19.3939C30.3135 19.3939 30.6393 19.2885 30.914 19.0777C31.1951 18.8605 31.4124 18.5602 31.5657 18.1769C31.719 17.7872 31.7957 17.3304 31.7957 16.8066C31.7957 16.0272 31.6264 15.4107 31.2878 14.9571C30.9492 14.5035 30.4988 14.2767 29.9366 14.2767C29.3744 14.2767 28.924 14.5035 28.5854 14.9571C28.2468 15.4107 28.0775 16.0272 28.0775 16.8066C28.0775 17.3304 28.1542 17.7872 28.3075 18.1769C28.4608 18.5602 28.678 18.8605 28.9591 19.0777C29.2402 19.2885 29.5661 19.3939 29.9366 19.3939Z" fill="#222222"/>
<path d="M33.9812 19.9785V13.6921H34.9394L36.1469 17.0461C36.2235 17.2634 36.297 17.4838 36.3673 17.7074C36.4439 17.9246 36.5206 18.1418 36.5973 18.359H36.6356C36.7123 18.1418 36.7825 17.9246 36.8464 17.7074C36.9167 17.4838 36.9902 17.2634 37.0668 17.0461L38.2551 13.6921H39.223V19.9785H38.4755V16.5191C38.4755 16.238 38.4883 15.9281 38.5138 15.5895C38.5394 15.2446 38.5618 14.9347 38.5809 14.66H38.5426L38.0443 16.0879L36.856 19.346H36.3289L35.1407 16.0879L34.6424 14.66H34.604C34.6232 14.9347 34.6424 15.2446 34.6615 15.5895C34.6871 15.9281 34.6999 16.238 34.6999 16.5191V19.9785H33.9812Z" fill="#222222"/>
<path d="M40.9437 19.9785V13.6921H42.7357C43.2084 13.6921 43.6205 13.7496 43.9719 13.8646C44.3232 13.9796 44.5979 14.1745 44.796 14.4492C44.994 14.7175 45.0931 15.0817 45.0931 15.5416C45.0931 16.1997 44.879 16.6884 44.451 17.0078C44.023 17.3272 43.464 17.487 42.774 17.487H41.7391V19.9785H40.9437ZM41.7391 16.8353H42.6782C43.2276 16.8353 43.6333 16.7331 43.8952 16.5287C44.1635 16.3178 44.2977 15.9888 44.2977 15.5416C44.2977 15.088 44.1571 14.775 43.876 14.6025C43.6013 14.4236 43.1893 14.3342 42.6399 14.3342H41.7391V16.8353Z" fill="#222222"/>
<path d="M46.3715 19.9785V13.6921H47.1668V19.2981H49.9171V19.9785H46.3715Z" fill="#222222"/>
<path d="M52.1428 16.4616L51.8457 17.4199H53.7336L53.4365 16.4616C53.3215 16.1102 53.2129 15.762 53.1107 15.4171C53.0085 15.0657 52.9062 14.7079 52.804 14.3438H52.7657C52.6699 14.7079 52.5708 15.0657 52.4686 15.4171C52.3664 15.762 52.2578 16.1102 52.1428 16.4616ZM50.2262 19.9785L52.3536 13.6921H53.2544L55.3818 19.9785H54.5289L53.9348 18.0619H51.6445L51.0408 19.9785H50.2262Z" fill="#222222"/>
<path d="M56.2725 19.9785V13.6921H57.0679V19.9785H56.2725Z" fill="#222222"/>
<path d="M58.7899 19.9785V13.6921H59.614L61.8851 17.6403L62.5655 18.9435H62.6038C62.5847 18.6241 62.5623 18.2951 62.5368 17.9565C62.5176 17.6115 62.508 17.2729 62.508 16.9407V13.6921H63.2651V19.9785H62.4409L60.1602 16.0208L59.4798 14.7271H59.4415C59.467 15.0401 59.4894 15.3628 59.5086 15.695C59.5341 16.0272 59.5469 16.3594 59.5469 16.6916V19.9785H58.7899Z" fill="#222222"/>
<path d="M66.2976 19.9785V14.3629H64.4002V13.6921H69V14.3629H67.1026V19.9785H66.2976Z" fill="#222222"/>
</svg>
