<svg width="41" height="40" viewBox="0 0 41 40" fill="none" xmlns="http://www.w3.org/2000/svg">
<path d="M37.3614 10.0613C37.3614 9.02326 37.3111 7.98522 37.3111 7.04594C37.3111 6.30422 36.7072 5.66126 35.9021 5.66126C29.9637 5.66126 25.3838 3.98026 21.6081 0.370398C21.0555 -0.123466 20.2001 -0.123466 19.6457 0.370398C15.8718 3.98026 11.3422 5.66126 5.35251 5.66126C4.59773 5.66126 3.9436 6.25483 3.9436 7.04594C3.9436 8.03367 3.9436 9.02326 3.89328 10.0613C3.69201 19.9013 3.44042 33.3512 20.1488 39.0371C20.3007 39.0865 20.4517 39.1359 20.6026 39.1359C20.7536 39.1359 20.9045 39.0865 21.0555 39.0371C37.7639 33.3512 37.5123 19.9013 37.3623 10.0613H37.3614ZM20.5793 38.2041C4.37689 32.4566 4.60519 19.7914 4.83348 8.68688C4.83348 8.01783 4.83348 7.34785 4.88939 6.73472C11.223 6.45517 16.3004 4.6139 20.6371 0.931352C24.9719 4.6139 30.0494 6.51108 36.383 6.73472C36.383 7.34785 36.383 8.01783 36.4389 8.68688C36.5535 19.7914 36.7818 32.4017 20.5793 38.2041Z" fill="#222222"/>
<path d="M0 32.5016L5.22191 27.9944L0 21.4307H41L36.4611 27.0561L41 32.5016H0Z" fill="#222222"/>
<path d="M9.19268 29.0894C8.90568 29.0894 8.62738 29.035 8.35777 28.9263C8.09252 28.8176 7.8577 28.6632 7.65332 28.4632L8.09687 27.9479C8.24906 28.0914 8.423 28.2088 8.61868 28.3002C8.81437 28.3871 9.01005 28.4306 9.20573 28.4306C9.44924 28.4306 9.63405 28.3806 9.76016 28.2806C9.88627 28.1806 9.94932 28.0479 9.94932 27.8827C9.94932 27.7044 9.88627 27.5761 9.76016 27.4979C9.6384 27.4196 9.48186 27.3391 9.29052 27.2565L8.70348 27.0021C8.56433 26.9412 8.42735 26.863 8.29255 26.7673C8.16209 26.6716 8.05338 26.5499 7.96641 26.402C7.88379 26.2542 7.84248 26.0759 7.84248 25.8672C7.84248 25.6411 7.90336 25.4388 8.02512 25.2606C8.15122 25.0779 8.32081 24.9344 8.53389 24.8301C8.75131 24.7213 8.99918 24.667 9.27748 24.667C9.52534 24.667 9.76451 24.717 9.99498 24.817C10.2254 24.9127 10.4233 25.0431 10.5885 25.2084L10.2037 25.6911C10.0689 25.578 9.9254 25.4889 9.77321 25.4236C9.62536 25.3584 9.46012 25.3258 9.27748 25.3258C9.07745 25.3258 8.91438 25.3714 8.78827 25.4628C8.66652 25.5497 8.60564 25.6715 8.60564 25.828C8.60564 25.9367 8.63608 26.0281 8.69696 26.102C8.76218 26.1716 8.84698 26.2324 8.95134 26.2846C9.05571 26.3325 9.16659 26.3803 9.284 26.4281L9.86452 26.6695C10.1167 26.7782 10.3233 26.9217 10.4842 27.1C10.6451 27.2739 10.7255 27.5152 10.7255 27.824C10.7255 28.0545 10.6646 28.2654 10.5429 28.4567C10.4211 28.648 10.245 28.8024 10.0145 28.9198C9.78843 29.0329 9.51447 29.0894 9.19268 29.0894Z" fill="white"/>
<path d="M11.5012 29.0111V24.7453H14.0712V25.3845H12.2579V26.4738H13.7907V27.113H12.2579V28.3719H14.1364V29.0111H11.5012Z" fill="white"/>
<path d="M16.7134 29.0894C16.3569 29.0894 16.0329 29.0046 15.7416 28.835C15.4502 28.6654 15.2176 28.4176 15.0436 28.0914C14.874 27.7609 14.7892 27.3609 14.7892 26.8912C14.7892 26.426 14.8762 26.0281 15.0501 25.6976C15.2284 25.3627 15.4654 25.1084 15.7611 24.9344C16.0568 24.7561 16.383 24.667 16.7395 24.667C17.0091 24.667 17.2483 24.7213 17.457 24.8301C17.6658 24.9388 17.8375 25.0649 17.9723 25.2084L17.5679 25.6976C17.4592 25.5845 17.3374 25.4954 17.2026 25.4302C17.0722 25.3606 16.9243 25.3258 16.7591 25.3258C16.5286 25.3258 16.3221 25.3888 16.1394 25.5149C15.9611 25.6367 15.8198 25.8128 15.7155 26.0433C15.6154 26.2738 15.5654 26.5499 15.5654 26.8717C15.5654 27.3587 15.672 27.7414 15.8851 28.0197C16.0981 28.2936 16.383 28.4306 16.7395 28.4306C16.9309 28.4306 17.1005 28.3915 17.2483 28.3132C17.3961 28.2306 17.531 28.124 17.6527 27.9936L18.0571 28.4697C17.8832 28.6698 17.6831 28.8241 17.457 28.9329C17.2353 29.0372 16.9874 29.0894 16.7134 29.0894Z" fill="white"/>
<path d="M20.2654 29.0894C19.9392 29.0894 19.6544 29.0242 19.4109 28.8937C19.1674 28.7633 18.9782 28.5545 18.8434 28.2675C18.713 27.9805 18.6477 27.6044 18.6477 27.1391V24.7453H19.4044V27.1978C19.4044 27.5066 19.4392 27.7522 19.5087 27.9349C19.5827 28.1132 19.6848 28.2414 19.8153 28.3197C19.9458 28.3936 20.0958 28.4306 20.2654 28.4306C20.4393 28.4306 20.5915 28.3936 20.722 28.3197C20.8568 28.2414 20.9611 28.1132 21.035 27.9349C21.1133 27.7522 21.1525 27.5066 21.1525 27.1978V24.7453H21.8765V27.1391C21.8765 27.6044 21.8113 27.9805 21.6808 28.2675C21.5503 28.5545 21.3634 28.7633 21.1198 28.8937C20.8807 29.0242 20.5959 29.0894 20.2654 29.0894Z" fill="white"/>
<path d="M22.9415 29.0111V24.7453H24.383C24.6787 24.7453 24.9439 24.7844 25.1788 24.8627C25.4179 24.9409 25.6049 25.0736 25.7397 25.2606C25.8789 25.4432 25.9484 25.6932 25.9484 26.0107C25.9484 26.3368 25.8702 26.5999 25.7136 26.7999C25.5614 27 25.357 27.1435 25.1005 27.2304L26.118 29.0111H25.2701L24.3504 27.3413H23.6981V29.0111H22.9415ZM23.6981 26.7412H24.3047C24.5961 26.7412 24.8178 26.6803 24.97 26.5586C25.1266 26.4325 25.2049 26.2498 25.2049 26.0107C25.2049 25.7672 25.1266 25.5976 24.97 25.5019C24.8178 25.4019 24.5961 25.3519 24.3047 25.3519H23.6981V26.7412Z" fill="white"/>
<path d="M26.8016 29.0111V24.7453H29.3715V25.3845H27.5582V26.4738H29.0911V27.113H27.5582V28.3719H29.4368V29.0111H26.8016Z" fill="white"/>
<path d="M30.3114 29.0111V24.7453H31.4529C32.1051 24.7453 32.6139 24.9214 32.9792 25.2736C33.3444 25.6258 33.5271 26.1542 33.5271 26.8586C33.5271 27.5674 33.3466 28.1045 32.9857 28.4697C32.6248 28.8307 32.1269 29.0111 31.492 29.0111H30.3114ZM31.068 28.398H31.4007C31.8312 28.398 32.1638 28.2741 32.3987 28.0262C32.6335 27.774 32.7509 27.3848 32.7509 26.8586C32.7509 26.3368 32.6335 25.9563 32.3987 25.7172C32.1638 25.478 31.8312 25.3584 31.4007 25.3584H31.068V28.398Z" fill="white"/>
<path d="M7.11523 16.73V15.1869H8.63596V11.5193H7.29414V10.334C7.69669 10.252 8.0396 10.1588 8.32287 10.0545C8.60614 9.94264 8.88196 9.80473 9.15033 9.64073H10.5592V15.1869H11.834V16.73H7.11523Z" fill="#222222"/>
<path d="M15.5076 16.8642C14.7249 16.8642 14.0875 16.5511 13.5955 15.9249C13.111 15.2913 12.8687 14.3669 12.8687 13.1518C12.8687 11.9367 13.111 11.0273 13.5955 10.4235C14.0875 9.81218 14.7249 9.50655 15.5076 9.50655C16.2904 9.50655 16.924 9.81218 17.4085 10.4235C17.9005 11.0347 18.1465 11.9442 18.1465 13.1518C18.1465 14.3669 17.9005 15.2913 17.4085 15.9249C16.924 16.5511 16.2904 16.8642 15.5076 16.8642ZM15.5076 15.3882C15.6567 15.3882 15.7946 15.3323 15.9214 15.2205C16.0481 15.1086 16.1487 14.8925 16.2233 14.5719C16.2978 14.2514 16.3351 13.778 16.3351 13.1518C16.3351 12.5256 16.2978 12.0597 16.2233 11.7541C16.1487 11.441 16.0481 11.236 15.9214 11.1391C15.7946 11.0347 15.6567 10.9825 15.5076 10.9825C15.3585 10.9825 15.2206 11.0347 15.0939 11.1391C14.9672 11.236 14.8665 11.441 14.792 11.7541C14.7174 12.0597 14.6802 12.5256 14.6802 13.1518C14.6802 13.778 14.7174 14.2514 14.792 14.5719C14.8665 14.8925 14.9672 15.1086 15.0939 15.2205C15.2206 15.3323 15.3585 15.3882 15.5076 15.3882Z" fill="#222222"/>
<path d="M21.6189 16.8642C20.8362 16.8642 20.1988 16.5511 19.7068 15.9249C19.2223 15.2913 18.98 14.3669 18.98 13.1518C18.98 11.9367 19.2223 11.0273 19.7068 10.4235C20.1988 9.81218 20.8362 9.50655 21.6189 9.50655C22.4017 9.50655 23.0353 9.81218 23.5198 10.4235C24.0118 11.0347 24.2578 11.9442 24.2578 13.1518C24.2578 14.3669 24.0118 15.2913 23.5198 15.9249C23.0353 16.5511 22.4017 16.8642 21.6189 16.8642ZM21.6189 15.3882C21.768 15.3882 21.9059 15.3323 22.0327 15.2205C22.1594 15.1086 22.26 14.8925 22.3346 14.5719C22.4091 14.2514 22.4464 13.778 22.4464 13.1518C22.4464 12.5256 22.4091 12.0597 22.3346 11.7541C22.26 11.441 22.1594 11.236 22.0327 11.1391C21.9059 11.0347 21.768 10.9825 21.6189 10.9825C21.4698 10.9825 21.3319 11.0347 21.2052 11.1391C21.0785 11.236 20.9778 11.441 20.9033 11.7541C20.8287 12.0597 20.7915 12.5256 20.7915 13.1518C20.7915 13.778 20.8287 14.2514 20.9033 14.5719C20.9778 14.8925 21.0785 15.1086 21.2052 15.2205C21.3319 15.3323 21.4698 15.3882 21.6189 15.3882Z" fill="#222222"/>
<path d="M26.8357 13.9569C26.4779 13.9569 26.1573 13.8637 25.874 13.6774C25.5908 13.491 25.3671 13.2264 25.2031 12.8835C25.0391 12.5331 24.9571 12.1156 24.9571 11.6311C24.9571 10.9005 25.136 10.334 25.4939 9.93146C25.8517 9.52891 26.299 9.32764 26.8357 9.32764C27.3724 9.32764 27.8197 9.52891 28.1775 9.93146C28.5353 10.334 28.7142 10.9005 28.7142 11.6311C28.7142 12.1156 28.6322 12.5331 28.4682 12.8835C28.3042 13.2264 28.0806 13.491 27.7973 13.6774C27.514 13.8637 27.1935 13.9569 26.8357 13.9569ZM26.8357 12.9058C26.9848 12.9058 27.1152 12.8164 27.227 12.6375C27.3389 12.4585 27.3948 12.1231 27.3948 11.6311C27.3948 11.1391 27.3389 10.8074 27.227 10.6359C27.1152 10.4645 26.9848 10.3787 26.8357 10.3787C26.694 10.3787 26.5636 10.4645 26.4443 10.6359C26.3325 10.8074 26.2766 11.1391 26.2766 11.6311C26.2766 12.1231 26.3325 12.4585 26.4443 12.6375C26.5636 12.8164 26.694 12.9058 26.8357 12.9058ZM27.104 16.8642L30.9953 9.32764H32.0688L28.1775 16.8642H27.104ZM32.3148 16.8642C31.9569 16.8642 31.6364 16.771 31.3531 16.5846C31.0699 16.3983 30.8462 16.1336 30.6822 15.7907C30.5182 15.4404 30.4362 15.0229 30.4362 14.5384C30.4362 13.8078 30.6151 13.2413 30.973 12.8387C31.3308 12.4362 31.778 12.2349 32.3148 12.2349C32.8515 12.2349 33.2988 12.4362 33.6566 12.8387C34.0144 13.2413 34.1933 13.8078 34.1933 14.5384C34.1933 15.0229 34.1113 15.4404 33.9473 15.7907C33.7833 16.1336 33.5597 16.3983 33.2764 16.5846C32.9931 16.771 32.6726 16.8642 32.3148 16.8642ZM32.3148 15.8131C32.4639 15.8131 32.5943 15.7236 32.7061 15.5447C32.818 15.3658 32.8739 15.0304 32.8739 14.5384C32.8739 14.0464 32.818 13.7146 32.7061 13.5432C32.5943 13.3717 32.4639 13.286 32.3148 13.286C32.1731 13.286 32.0427 13.3717 31.9234 13.5432C31.8116 13.7146 31.7557 14.0464 31.7557 14.5384C31.7557 15.0304 31.8116 15.3658 31.9234 15.5447C32.0427 15.7236 32.1731 15.8131 32.3148 15.8131Z" fill="#222222"/>
</svg>
